<?xml version="1.0" standalone="no"?>
<!DOCTYPE svg PUBLIC "-//W3C//DTD SVG 20010904//EN"
 "http://www.w3.org/TR/2001/REC-SVG-20010904/DTD/svg10.dtd">
<svg version="1.0" xmlns="http://www.w3.org/2000/svg"
 width="2284.000000pt" height="2284.000000pt" viewBox="0 0 2284.000000 2284.000000"
 preserveAspectRatio="xMidYMid meet">
<metadata>
Created by potrace 1.14, written by Peter Selinger 2001-2017
</metadata>
<g transform="translate(0.000000,2284.000000) scale(0.100000,-0.100000)"
fill="#000000" stroke="none">
<path d="M11385 15501 c-10 -9 -106 -60 -390 -206 -93 -48 -201 -104 -240
-125 -38 -20 -137 -72 -220 -115 -165 -85 -342 -177 -510 -265 -60 -32 -160
-84 -222 -116 l-112 -58 0 -453 c1 -333 4 -454 12 -461 7 -5 84 -46 172 -92
172 -89 336 -174 480 -250 50 -26 171 -89 270 -140 99 -51 185 -96 190 -101 6
-4 22 -12 36 -18 l26 -9 -1 372 -1 373 72 37 c40 21 159 84 264 142 106 57
195 104 199 104 9 0 142 -70 379 -199 52 -28 96 -51 98 -51 3 0 18 -9 33 -20
l29 -20 0 -428 c-1 -539 -1 -532 10 -532 5 0 177 -93 382 -206 206 -114 399
-220 429 -236 30 -17 69 -38 85 -48 17 -9 62 -34 100 -55 39 -21 94 -51 123
-67 l52 -29 1 48 c5 399 -1 2337 -7 2342 -5 5 -88 49 -184 99 -195 100 -341
176 -505 262 -129 67 -301 157 -510 265 -82 43 -186 97 -230 120 -146 78 -282
145 -291 145 -6 0 -14 -4 -19 -9z"/>
<path d="M250 14490 c0 -6 83 -144 235 -390 179 -289 235 -383 261 -428 22
-40 35 -52 54 -53 32 -1 8541 -1 8558 0 9 1 12 96 12 440 l0 438 -4560 0
c-2508 0 -4560 -3 -4560 -7z"/>
<path d="M13450 14058 c0 -343 3 -438 13 -439 51 -3 8598 -1 8600 2 2 2 55 90
119 194 214 353 346 570 377 619 17 26 31 52 31 56 0 4 -2056 7 -4570 7
l-4570 0 0 -439z"/>
<path d="M9692 12750 l0 -669 31 -19 c18 -11 68 -39 112 -62 44 -24 94 -51
110 -60 64 -36 143 -79 220 -120 94 -51 148 -80 270 -147 50 -28 131 -72 180
-98 50 -26 95 -51 100 -55 6 -4 42 -24 80 -45 39 -21 93 -50 120 -65 28 -15
106 -58 175 -95 115 -62 187 -102 265 -145 17 -9 75 -40 130 -70 55 -29 105
-56 110 -60 10 -7 52 -30 219 -119 43 -24 91 -50 106 -59 l28 -17 0 -921 0
-920 -62 -33 c-33 -18 -92 -50 -131 -71 -285 -154 -336 -180 -344 -180 -6 0
-25 8 -43 19 -93 53 -304 165 -308 164 -3 0 -16 7 -30 17 -14 10 -53 32 -87
49 -40 20 -63 38 -64 49 0 9 -1 416 -1 903 l-1 885 -136 75 c-74 41 -167 91
-206 112 -38 21 -88 49 -110 61 -22 13 -71 40 -110 61 -62 34 -109 60 -285
157 -25 14 -70 39 -100 55 -30 17 -93 51 -139 77 -46 25 -87 46 -91 46 -5 0
-8 -726 -8 -1613 l0 -1614 86 -45 c154 -78 425 -219 507 -263 44 -23 148 -77
230 -120 157 -82 313 -162 480 -250 350 -183 415 -215 432 -208 10 4 39 19 66
35 26 15 47 25 47 22 0 -4 6 -2 13 4 6 5 75 42 152 82 77 40 181 94 230 120
50 26 158 82 240 125 83 43 197 103 255 133 182 95 319 166 505 262 99 51 184
96 188 100 11 10 12 3399 1 3410 -9 7 -66 38 -399 210 -132 68 -213 111 -450
235 -55 29 -167 87 -250 130 -82 43 -181 94 -220 115 -38 21 -146 77 -240 125
-93 48 -201 105 -240 125 -38 21 -137 72 -220 115 -82 43 -195 101 -250 130
-55 29 -158 83 -230 120 -71 37 -175 91 -230 120 -139 73 -284 149 -460 240
-82 43 -170 89 -194 102 -24 13 -45 23 -47 23 -1 0 -3 -301 -2 -670z"/>
<path d="M5972 10300 c0 -1579 2 -2870 4 -2870 3 0 33 27 67 61 34 34 248 244
475 468 228 223 464 455 525 514 l112 108 0 657 c-1 361 3 659 7 662 3 3 183
5 397 5 l391 0 1 50 c0 57 0 1167 -1 1175 0 3 -176 5 -391 5 -215 0 -394 2
-397 5 -4 3 -7 182 -7 398 0 386 0 393 20 397 11 2 243 3 515 2 l495 -2 0
-1533 0 -1534 100 -52 c55 -29 177 -92 270 -141 94 -48 211 -109 260 -135 50
-26 158 -82 240 -125 83 -43 187 -97 233 -122 l82 -44 0 2461 0 2460 -1699 0
-1699 0 0 -2870z"/>
<path d="M13455 10711 l0 -2459 155 80 c85 44 216 112 290 151 74 38 180 93
235 122 55 29 177 92 270 140 94 48 184 96 201 106 l31 19 -1 599 c-1 330 2
597 6 593 4 -4 100 -241 213 -527 114 -286 210 -523 214 -528 7 -7 61 114 183
418 38 94 73 179 78 190 5 11 27 68 49 126 l41 105 0 627 0 627 -64 163 c-35
89 -96 245 -136 347 -39 102 -78 199 -85 215 -7 17 -43 107 -79 200 -37 94
-71 179 -75 190 -5 11 -28 70 -51 130 -23 61 -53 134 -66 163 -13 29 -24 57
-24 63 0 6 -10 34 -23 62 -13 29 -66 161 -118 294 l-94 243 -575 0 -575 0 0
-2459z"/>
<path d="M15401 12787 c-80 -210 -147 -386 -150 -392 -3 -5 -6 -12 -7 -15 0
-3 -6 -18 -13 -35 -7 -16 -10 -39 -8 -50 2 -11 103 -274 223 -585 l219 -565 3
-1281 2 -1281 386 -379 c668 -656 789 -773 793 -769 3 3 5 5609 2 5713 l-1 22
-652 0 -653 0 -144 -383z"/>
<path d="M1700 13126 c0 -3 24 -45 54 -93 30 -48 90 -146 134 -218 255 -418
304 -499 325 -531 l22 -36 1605 0 c883 1 1624 1 1648 1 l42 1 0 440 0 440
-1915 0 c-1053 0 -1915 -2 -1915 -4z"/>
<path d="M17312 12689 l3 -442 1630 1 c897 0 1637 1 1646 1 10 1 42 42 79 104
34 56 92 152 129 212 71 114 235 383 302 494 22 34 39 65 39 67 0 2 -862 4
-1915 4 l-1915 0 2 -441z"/>
<path d="M3258 11583 c60 -98 166 -272 237 -388 70 -115 143 -234 162 -262
l34 -53 920 0 919 0 0 440 0 440 -1190 0 -1190 0 108 -177z"/>
<path d="M17310 11320 l0 -440 922 2 923 3 62 100 c35 55 67 109 72 120 5 11
20 36 33 55 21 31 116 186 159 258 9 15 59 98 112 185 l97 157 -1190 0 -1190
0 0 -440z"/>
<path d="M4618 10389 c-7 -5 272 -475 437 -734 17 -27 45 -71 61 -97 l29 -48
193 0 192 0 0 440 c0 242 -3 440 -7 441 -49 4 -897 2 -905 -2z"/>
<path d="M17333 10392 l-23 -3 0 -440 0 -439 193 0 194 0 93 153 c51 83 172
280 267 435 96 156 172 286 169 289 -6 6 -854 10 -893 5z"/>
</g>
</svg>
