<?xml version="1.0" standalone="no"?>
<!DOCTYPE svg PUBLIC "-//W3C//DTD SVG 20010904//EN"
        "http://www.w3.org/TR/2001/REC-SVG-20010904/DTD/svg10.dtd">
<svg height="400.000000pt" preserveAspectRatio="xMidYMid meet"
        version="1.0" viewBox="0 0 400.000000 400.000000" width="400.000000pt"
        xmlns="http://www.w3.org/2000/svg">
    <g fill="#000000"
            stroke="none" transform="translate(0.000000,400.000000) scale(0.100000,-0.100000)">
        <path d="M1828 3994 c-2 -2 -27 -6 -54 -8 -56 -5 -133 -17 -194 -31 -14 -3
-38 -8 -53 -10 -49 -9 -219 -66 -292 -97 -116 -50 -137 -60 -213 -105 -41 -24
-77 -43 -82 -43 -5 0 -10 -3 -12 -7 -1 -5 -30 -26 -63 -48 -140 -92 -337 -276
-438 -410 -4 -5 -21 -28 -38 -50 -145 -188 -295 -522 -343 -761 -36 -181 -41
-234 -41 -419 1 -188 7 -257 40 -430 9 -47 44 -178 54 -200 5 -11 17 -42 26
-70 10 -27 26 -70 38 -95 11 -25 25 -56 31 -70 6 -14 32 -63 58 -109 27 -46
48 -86 48 -88 0 -4 6 -14 105 -148 77 -104 175 -210 284 -305 62 -55 232 -180
261 -193 8 -4 33 -18 55 -31 36 -23 121 -65 200 -102 30 -13 191 -74 210 -78
6 -2 24 -6 40 -10 17 -4 37 -10 45 -13 20 -8 18 -8 75 -18 28 -5 55 -10 60
-11 6 -1 12 -3 15 -4 72 -28 580 -33 661 -6 8 3 30 7 49 10 19 3 46 7 60 10
14 3 36 8 50 11 105 21 437 147 460 175 3 3 20 12 38 19 17 8 32 18 32 24 0 6
3 8 6 4 7 -7 191 117 264 178 139 117 261 248 354 380 31 44 61 85 66 92 6 7
10 15 10 18 0 3 15 30 34 60 19 29 32 56 29 59 -4 3 -1 6 5 6 7 0 12 4 12 9 0
5 18 47 39 93 63 134 127 335 146 458 4 25 9 54 11 65 19 102 26 396 12 520
-9 79 -28 197 -33 205 -2 4 -7 22 -10 41 -7 41 -33 136 -45 164 -4 11 -16 43
-25 70 -10 28 -28 74 -41 103 -13 29 -24 54 -24 56 0 24 -190 328 -242 387
-13 15 -32 39 -44 53 -34 43 -157 168 -205 208 -24 21 -57 49 -74 63 -77 66
-244 171 -370 233 -59 29 -257 109 -290 117 -42 10 -72 18 -85 22 -8 3 -22 7
-30 9 -23 4 -84 17 -90 19 -3 1 -28 5 -55 9 -28 4 -64 9 -80 12 -39 6 -412 14
-417 8z"/>
    </g>
    <metadata>
        Created by potrace 1.14, written by Peter Selinger 2001-2017
    </metadata>
</svg>
